<?xml version="1.0" standalone="no"?>
<!DOCTYPE svg PUBLIC "-//W3C//DTD SVG 20010904//EN"
 "http://www.w3.org/TR/2001/REC-SVG-20010904/DTD/svg10.dtd">
<svg version="1.0" xmlns="http://www.w3.org/2000/svg"
 width="1024.000000pt" height="1024.000000pt" viewBox="0 0 1024.000000 1024.000000"
 preserveAspectRatio="xMidYMid meet">

 <!-- White background added -->
 <rect width="100%" height="100%" fill="white"/>
   <!-- Rounded corner rectangle -->
   <rect x="120" width="100" height="100" rx="15" />


<metadata>
Created by potrace 1.16, written by Peter Selinger 2001-2019
</metadata>
<g transform="translate(0.000000,1024.000000) scale(0.100000,-0.100000)"
fill="#000000" stroke="none">
<path d="M0 5120 l0 -5120 5120 0 5120 0 0 5120 0 5120 -5120 0 -5120 0 0
-5120z m7210 1955 l0 -725 -22 -5 c-13 -3 -151 -28 -308 -55 -157 -28 -357
-64 -446 -80 -88 -17 -173 -30 -187 -30 l-27 0 0 235 0 235 -22 -5 c-13 -2
-129 -23 -258 -45 -129 -23 -332 -59 -450 -80 -118 -21 -361 -64 -540 -95
-179 -31 -398 -70 -488 -87 l-162 -30 -57 -62 c-31 -33 -132 -141 -225 -238
l-168 -177 0 -1000 0 -1001 229 -232 c223 -225 230 -231 263 -225 102 18 1100
187 1428 242 212 36 400 67 418 70 l32 6 0 394 c0 217 -2 395 -5 395 -7 0
-717 -120 -1030 -175 -143 -25 -277 -48 -297 -51 l-38 -7 0 497 c0 388 3 498
13 501 13 5 565 98 1632 275 363 60 672 112 688 115 l27 5 0 -1023 0 -1022
-412 -412 -413 -412 -60 -10 c-33 -5 -179 -30 -325 -56 -146 -25 -490 -84
-765 -130 -275 -47 -657 -111 -850 -144 -192 -32 -370 -61 -395 -65 l-45 -6
-195 187 c-107 102 -283 270 -390 372 -107 102 -246 235 -307 295 l-113 110 0
1405 1 1406 72 77 c40 42 153 163 252 269 99 107 250 268 335 359 85 91 204
218 264 283 83 90 117 119 145 126 20 6 214 40 431 76 417 70 806 137 1365
236 187 33 441 78 565 99 124 22 349 62 500 89 151 27 290 49 308 50 l32 1 0
-725z"/>
</g>
</svg>
